<svg width="24" height="24" viewBox="0 0 24 24" fill="none" xmlns="http://www.w3.org/2000/svg">
<path d="M21.535 14.9379C20.7237 17.4856 18.9354 19.6077 16.562 20.8389C14.1765 22.0784 11.4009 22.336 8.82799 21.5569C9.80589 20.0632 10.4631 18.3827 10.758 16.6219L11.199 16.9629C11.6038 17.2743 12.0745 17.489 12.5751 17.5905C13.0756 17.6921 13.5928 17.6779 14.087 17.5489C14.7262 17.422 15.3333 17.1676 15.872 16.8009C16.408 16.435 16.8641 15.9642 17.213 15.4169C17.7684 14.6294 18.144 13.7295 18.3134 12.7809C18.4827 11.8322 18.4416 10.8579 18.193 9.92691C17.932 8.878 17.37 7.92834 16.576 7.19491C15.7768 6.45748 14.7816 5.96678 13.71 5.78191C12.7844 5.55043 11.8222 5.50468 10.8788 5.64732C9.93547 5.78995 9.02974 6.11814 8.21399 6.61291C7.45592 7.06343 6.81272 7.6837 6.33499 8.42491C5.86039 9.1636 5.56614 10.0035 5.47599 10.8769C5.26892 12.2097 5.59828 13.5703 6.39199 14.6609C6.66486 15.053 7.03684 15.3656 7.46999 15.5669C7.72899 15.6949 7.85799 15.4809 7.94399 15.2149C8.12799 14.6929 8.26799 14.4259 8.05199 13.9999C7.6575 13.3984 7.42292 12.7062 7.37042 11.9888C7.31793 11.2714 7.44926 10.5524 7.75199 9.89991C8.05748 9.24654 8.52241 8.68051 9.10399 8.25391C9.68947 7.82562 10.373 7.55092 11.092 7.45491C12.0896 7.28471 13.1154 7.43416 14.023 7.88191C14.6268 8.17944 15.1394 8.63401 15.507 9.19791C15.873 9.76091 16.079 10.4109 16.103 11.0789C16.251 12.3628 15.9503 13.6584 15.252 14.7459C15.0274 15.1254 14.7146 15.4452 14.34 15.6779C13.9636 15.911 13.5372 16.0515 13.096 16.0879C12.8603 16.118 12.6208 16.0905 12.398 16.0078C12.1753 15.9251 11.9759 15.7896 11.817 15.6129C11.6599 15.4368 11.5488 15.2246 11.4937 14.9951C11.4386 14.7657 11.4411 14.5262 11.501 14.2979C11.706 13.4559 11.986 12.6249 12.201 11.7719C12.294 11.4249 12.327 11.0639 12.299 10.7059C12.2871 10.4884 12.2198 10.2775 12.1036 10.0933C11.9874 9.90899 11.8261 9.75742 11.635 9.65291C11.4433 9.54676 11.2282 9.48998 11.0091 9.48771C10.79 9.48545 10.5738 9.53775 10.38 9.63991C10.074 9.79191 9.81399 10.0199 9.62399 10.3029C9.43499 10.5849 9.32399 10.9119 9.30199 11.2499C9.17583 11.9045 9.22411 12.5808 9.44199 13.2109C9.48662 13.3603 9.48662 13.5195 9.44199 13.6689C9.06499 15.2889 8.63399 16.8669 8.36499 18.5189C8.27499 19.2899 8.24899 20.0679 8.28899 20.8429V21.3429C5.93957 20.3883 4.03419 18.5864 2.94999 16.2939C1.87436 14.0115 1.706 11.4057 2.47899 9.00391C3.25745 6.59304 4.91603 4.56418 7.12399 3.32191C9.34323 2.07083 11.9486 1.69014 14.433 2.25391C15.759 2.59591 17.002 3.20091 18.085 4.03191C19.1668 4.86021 20.0679 5.90083 20.733 7.08991C21.3974 8.27323 21.8115 9.58051 21.9495 10.9306C22.0874 12.2806 21.9464 13.6447 21.535 14.9379Z" fill="#3B3731"/>
</svg>
