<svg width="24" height="24" viewBox="0 0 24 24" fill="none" xmlns="http://www.w3.org/2000/svg">
<path fill-rule="evenodd" clip-rule="evenodd" d="M12.2138 1.01465C12.4242 1.0441 12.6268 1.11761 12.8085 1.23047C12.9903 1.34335 13.1459 1.49246 13.2656 1.66797L13.373 1.85156L15.6835 6.53125C15.7638 6.69402 15.8825 6.83563 16.0292 6.94238C16.176 7.04905 16.3468 7.11832 16.5263 7.14453L21.6923 7.90039C21.9041 7.93112 22.1052 8.00615 22.2851 8.11914L22.458 8.24414L22.6103 8.39258C22.7051 8.49818 22.7844 8.61659 22.8466 8.74414L22.9267 8.94141L22.9785 9.14844C23.0154 9.35762 23.0082 9.57349 22.957 9.78125C22.8886 10.0582 22.7442 10.3106 22.54 10.5098L22.539 10.5107L18.8037 14.1484C18.6736 14.2751 18.5757 14.4319 18.5195 14.6045C18.4633 14.7773 18.4497 14.9615 18.4804 15.1406L19.3613 20.2764L19.3837 20.4893C19.3911 20.7025 19.3539 20.9159 19.2734 21.1152C19.166 21.3811 18.9859 21.6118 18.7539 21.7803C18.5219 21.9487 18.2469 22.0484 17.9609 22.0684C17.6748 22.0882 17.3888 22.0273 17.1357 21.8926L12.5224 19.4668C12.3617 19.3823 12.1825 19.3389 12.0009 19.3389C11.8196 19.3389 11.6409 19.3825 11.4804 19.4668L6.86421 21.8926L6.86518 21.8936C6.61219 22.0274 6.32647 22.0877 6.04096 22.0674C5.75557 22.047 5.48138 21.9475 5.24995 21.7793C5.01846 21.6109 4.83873 21.3806 4.73139 21.1152C4.65085 20.916 4.61376 20.7025 4.62104 20.4893L4.64253 20.2773L5.52339 15.1416L5.53803 15.0059C5.54461 14.8706 5.5264 14.735 5.48432 14.6055C5.44214 14.4757 5.37702 14.3547 5.29194 14.249L5.20014 14.1484L1.46382 10.5117L1.46479 10.5107C1.26023 10.3121 1.11492 10.0609 1.04585 9.78418C0.976485 9.50616 0.985748 9.21396 1.07417 8.94141L1.15425 8.74316C1.24776 8.5513 1.38122 8.3805 1.54585 8.24219C1.76517 8.05795 2.03178 7.9386 2.31538 7.89844L7.47651 7.14453C7.65608 7.11846 7.82771 7.04896 7.97456 6.94238C8.12153 6.83562 8.24086 6.69415 8.32124 6.53125L10.6298 1.85254L10.6308 1.85156C10.7572 1.59615 10.9522 1.38087 11.1943 1.23047C11.4366 1.08006 11.7167 1 12.0019 1L12.2138 1.01465ZM10.1142 7.41602C9.89028 7.86984 9.55978 8.26314 9.15034 8.56055C8.74099 8.85786 8.26528 9.05138 7.7646 9.12402L7.76362 9.12305L3.53901 9.74023L6.59468 12.7148C6.95775 13.0681 7.22999 13.5046 7.38667 13.9863C7.54333 14.4681 7.57999 14.9812 7.49409 15.4805L6.77339 19.6826L10.5498 17.6973C10.9973 17.4621 11.4954 17.3389 12.0009 17.3389C12.5067 17.3389 13.0054 17.461 13.4531 17.6963L17.2304 19.6826L16.5087 15.4795C16.4231 14.9805 16.4606 14.4678 16.6171 13.9863C16.7738 13.5048 17.0452 13.068 17.4082 12.7148L20.4619 9.74121L16.2373 9.12305C15.737 9.04999 15.2614 8.85694 14.8525 8.55957C14.4437 8.26221 14.1132 7.86938 13.8896 7.41602L12.0009 3.5918L10.1142 7.41602Z" fill="black"/>
</svg>
